<svg width="1200" height="608" viewBox="0 0 1200 608" fill="none" xmlns="http://www.w3.org/2000/svg">
<rect width="1200" height="608" fill="#FFFEFC"/>
<path d="M92.0763 219.034C96.9763 223.015 98.8154 222.712 108.024 222.095L350.609 217.49C352.448 217.49 350.917 215.651 350.306 215.349L335.882 204.925C333.124 202.784 329.439 200.327 322.384 200.938L82.5588 206.469C79.4979 206.771 78.8805 208.308 80.1022 209.53L92.0763 219.034ZM97.285 330.591C97.285 335.497 99.735 337.336 105.259 337.028L356.435 332.114C361.959 331.812 362.576 328.436 362.576 324.449V233.734C362.576 229.753 361.046 227.605 357.663 227.908L102.192 233.13C98.5133 233.439 97.285 235.278 97.285 239.258V330.591ZM75.5044 198.193L318.713 192.36C329.445 191.44 332.211 192.051 338.956 196.957L366.865 216.571C371.463 219.94 373 220.86 373 224.538V332.114C373 338.853 370.55 342.847 361.965 343.451L104.648 348.982C98.2111 349.291 95.1372 348.371 91.761 344.075L71.2087 317.408C67.5304 312.501 66 308.83 66 304.534V208.912C66 203.401 68.4566 198.797 75.5044 198.193Z" fill="black"/>
<path d="M136.499 284.241C136.529 278.977 139.597 275.849 144.259 275.849C148.922 275.849 151.689 278.917 151.659 284.03V310.59H166.367V281.143C166.398 270.735 160.051 263.787 150.335 263.787C143.507 263.787 138.334 267.246 136.289 272.871H135.777V264.389H121.79V310.59H136.499V284.241Z" fill="black"/>
<path d="M201.552 264.389H193.22V253.32H178.512V264.389H172.406V275.217H178.512V297.686C178.422 307.041 184.498 311.733 194.875 311.252C198.424 311.071 200.981 310.349 202.395 309.928L200.169 299.31C199.537 299.461 198.063 299.762 196.95 299.762C194.574 299.762 193.22 298.799 193.22 296.062V275.217H201.552V264.389Z" fill="black"/>
<path d="M223.886 311.613C231.526 311.613 235.827 307.733 237.542 304.273H237.903V310.59H246.686V279.909C246.686 266.464 236.098 263.787 228.759 263.787C220.397 263.787 212.697 267.156 209.689 275.578L218.141 277.503C219.464 274.225 222.833 271.066 228.879 271.066C234.684 271.066 237.662 274.104 237.662 279.338V279.549C237.662 282.827 234.293 282.767 225.992 283.729C217.239 284.752 208.275 287.038 208.275 297.536C208.275 306.62 215.103 311.613 223.886 311.613ZM225.841 304.394C220.758 304.394 217.088 302.108 217.088 297.656C217.088 292.843 221.359 291.129 226.563 290.437C229.481 290.046 236.399 289.264 237.692 287.971V293.926C237.692 299.401 233.331 304.394 225.841 304.394Z" fill="black"/>
<path d="M293.286 275.668C291.421 268.479 285.796 263.787 275.81 263.787C265.372 263.787 257.973 269.292 257.973 277.473C257.973 284.03 261.943 288.392 270.606 290.317L278.427 292.031C282.878 293.024 284.954 295.009 284.954 297.897C284.954 301.476 281.134 304.273 275.238 304.273C269.854 304.273 266.395 301.957 265.312 297.415L256.619 298.739C258.123 306.92 264.921 311.522 275.298 311.522C286.458 311.522 294.188 305.597 294.188 297.235C294.188 290.708 290.037 286.677 281.555 284.722L274.216 283.038C269.132 281.835 266.937 280.12 266.967 276.992C266.937 273.442 270.787 270.916 275.9 270.916C281.495 270.916 284.082 274.014 285.134 277.112L293.286 275.668Z" fill="black"/>
<path d="M325.643 264.389H316.168V253.32H307.175V264.389H300.407V271.608H307.175V298.889C307.145 307.281 313.551 311.342 320.65 311.192C323.508 311.162 325.433 310.62 326.485 310.229L324.861 302.8C324.26 302.92 323.147 303.191 321.703 303.191C318.785 303.191 316.168 302.228 316.168 297.024V271.608H325.643V264.389Z" fill="black"/>
<path d="M460.048 251.182H450.926V272.972H450.612L435.729 251.182H427.862V289H437.003V267.173H437.243L452.293 289H460.048V251.182ZM478.593 289.572C486.588 289.572 491.814 283.719 491.814 274.947C491.814 266.121 486.588 260.267 478.593 260.267C470.597 260.267 465.371 266.121 465.371 274.947C465.371 283.719 470.597 289.572 478.593 289.572ZM478.611 284.938C473.385 284.938 470.948 280.376 470.948 274.929C470.948 269.5 473.385 264.884 478.611 264.884C483.8 264.884 486.238 269.5 486.238 274.929C486.238 280.376 483.8 284.938 478.611 284.938ZM513.138 260.636H508.023V253.841H498.993V260.636H495.244V267.284H498.993V281.078C498.938 286.821 502.668 289.702 509.038 289.406C511.217 289.295 512.787 288.852 513.655 288.594L512.288 282.075C511.901 282.168 510.996 282.352 510.312 282.352C508.854 282.352 508.023 281.761 508.023 280.081V267.284H513.138V260.636ZM518.594 289H524.116V260.636H518.594V289ZM521.383 256.26C523.285 256.26 524.873 254.783 524.873 252.973C524.873 251.163 523.285 249.668 521.383 249.668C519.462 249.668 517.893 251.163 517.893 252.973C517.893 254.783 519.462 256.26 521.383 256.26ZM543.491 289.572C551.487 289.572 556.713 283.719 556.713 274.947C556.713 266.121 551.487 260.267 543.491 260.267C535.495 260.267 530.27 266.121 530.27 274.947C530.27 283.719 535.495 289.572 543.491 289.572ZM543.51 284.938C538.284 284.938 535.846 280.376 535.846 274.929C535.846 269.5 538.284 264.884 543.51 264.884C548.699 264.884 551.136 269.5 551.136 274.929C551.136 280.376 548.699 284.938 543.51 284.938ZM568.397 272.159C568.397 267.635 571.167 265.05 575.008 265.05C578.756 265.05 581.028 267.506 581.028 271.624V289H586.549V270.959C586.549 263.942 582.69 260.267 576.891 260.267C572.626 260.267 569.837 262.243 568.526 265.253H568.175V260.636H562.876V289H568.397V272.159ZM615.047 289L617.539 281.06H630.595L633.088 289H642.912L630.152 251.182H617.983L605.223 289H615.047ZM619.718 274.116L623.91 260.71H624.206L628.416 274.116H619.718ZM648.276 289H653.668V284.587H654.13C655.127 286.396 657.158 289.554 662.328 289.554C669.198 289.554 674.184 284.051 674.184 274.874C674.184 265.678 669.124 260.267 662.273 260.267C657.01 260.267 655.108 263.48 654.13 265.234H653.797V251.182H648.276V289ZM653.686 274.818C653.686 268.891 656.272 264.957 661.091 264.957C666.096 264.957 668.607 269.186 668.607 274.818C668.607 280.506 666.022 284.845 661.091 284.845C656.346 284.845 653.686 280.783 653.686 274.818ZM701.638 267.561C700.493 263.148 697.04 260.267 690.909 260.267C684.501 260.267 679.959 263.646 679.959 268.669C679.959 272.695 682.396 275.372 687.714 276.554L692.516 277.607C695.249 278.216 696.523 279.435 696.523 281.207C696.523 283.405 694.178 285.122 690.558 285.122C687.253 285.122 685.129 283.7 684.464 280.912L679.128 281.724C680.051 286.747 684.224 289.572 690.595 289.572C697.446 289.572 702.192 285.935 702.192 280.801C702.192 276.794 699.643 274.32 694.436 273.119L689.93 272.085C686.81 271.347 685.462 270.294 685.48 268.374C685.462 266.195 687.825 264.643 690.964 264.643C694.399 264.643 695.987 266.545 696.634 268.447L701.638 267.561ZM721.502 260.636H715.686V253.841H710.164V260.636H706.01V265.068H710.164V281.817C710.146 286.969 714.079 289.462 718.437 289.369C720.191 289.351 721.373 289.018 722.02 288.778L721.022 284.217C720.653 284.291 719.97 284.457 719.083 284.457C717.292 284.457 715.686 283.866 715.686 280.672V265.068H721.502V260.636ZM727.61 289H733.131V271.679C733.131 267.967 735.994 265.29 739.908 265.29C741.053 265.29 742.346 265.493 742.789 265.622V260.341C742.235 260.267 741.146 260.212 740.444 260.212C737.12 260.212 734.276 262.095 733.242 265.142H732.947V260.636H727.61V289ZM755.567 289.628C760.258 289.628 762.898 287.246 763.951 285.122H764.173V289H769.565V270.165C769.565 261.911 763.065 260.267 758.559 260.267C753.425 260.267 748.698 262.335 746.852 267.506L752.04 268.688C752.853 266.675 754.921 264.736 758.633 264.736C762.197 264.736 764.025 266.601 764.025 269.814V269.943C764.025 271.956 761.957 271.919 756.86 272.51C751.487 273.138 745.984 274.541 745.984 280.986C745.984 286.562 750.175 289.628 755.567 289.628ZM756.768 285.196C753.647 285.196 751.394 283.793 751.394 281.06C751.394 278.105 754.016 277.053 757.211 276.628C759.002 276.388 763.249 275.908 764.043 275.114V278.77C764.043 282.131 761.366 285.196 756.768 285.196ZM788.866 289.572C795.569 289.572 799.909 285.547 800.518 280.026H795.145C794.443 283.091 792.061 284.901 788.903 284.901C784.231 284.901 781.221 281.004 781.221 274.818C781.221 268.743 784.287 264.92 788.903 264.92C792.412 264.92 794.554 267.136 795.145 269.795H800.518C799.927 264.071 795.255 260.267 788.811 260.267C780.815 260.267 775.645 266.287 775.645 274.947C775.645 283.497 780.63 289.572 788.866 289.572ZM819.663 260.636H813.846V253.841H808.325V260.636H804.17V265.068H808.325V281.817C808.306 286.969 812.239 289.462 816.597 289.369C818.352 289.351 819.533 289.018 820.18 288.778L819.183 284.217C818.813 284.291 818.13 284.457 817.244 284.457C815.452 284.457 813.846 283.866 813.846 280.672V265.068H819.663V260.636ZM859.124 262.52H867.877C867.803 255.447 862.171 250.665 853.381 250.665C844.739 250.665 838.516 255.374 838.572 262.409C838.553 268.152 842.579 271.384 849.116 272.879L853.067 273.803C857.222 274.763 859.087 275.889 859.124 278.013C859.087 280.321 856.927 281.928 853.252 281.928C849.208 281.928 846.549 280.044 846.346 276.406H837.593C837.704 285.251 843.853 289.48 853.363 289.48C862.781 289.48 868.357 285.214 868.394 278.031C868.357 271.993 864.276 268.3 856.816 266.656L853.566 265.918C850.131 265.179 847.952 264.034 848.026 261.781C848.045 259.713 849.817 258.217 853.363 258.217C856.927 258.217 858.884 259.824 859.124 262.52ZM877.35 299.636C881.911 299.636 884.792 297.254 886.435 292.786L898.161 260.692L892.197 260.636L885.013 282.648H884.718L877.535 260.636H871.626L882.004 289.369L881.32 291.253C879.917 295.02 877.941 295.334 874.913 294.503L873.583 299.027C874.248 299.322 875.688 299.636 877.35 299.636ZM908.885 272.159C908.885 267.635 911.655 265.05 915.496 265.05C919.245 265.05 921.516 267.506 921.516 271.624V289H927.037V270.959C927.037 263.942 923.178 260.267 917.38 260.267C913.114 260.267 910.326 262.243 909.015 265.253H908.664V260.636H903.364V289H908.885V272.159ZM947.682 260.636H941.865V253.841H936.344V260.636H932.189V265.068H936.344V281.817C936.326 286.969 940.259 289.462 944.617 289.369C946.371 289.351 947.553 289.018 948.199 288.778L947.202 284.217C946.833 284.291 946.15 284.457 945.263 284.457C943.472 284.457 941.865 283.866 941.865 280.672V265.068H947.682V260.636ZM962.044 289.628C966.734 289.628 969.375 287.246 970.428 285.122H970.649V289H976.041V270.165C976.041 261.911 969.541 260.267 965.036 260.267C959.902 260.267 955.175 262.335 953.328 267.506L958.517 268.688C959.33 266.675 961.398 264.736 965.109 264.736C968.673 264.736 970.501 266.601 970.501 269.814V269.943C970.501 271.956 968.433 271.919 963.337 272.51C957.963 273.138 952.46 274.541 952.46 280.986C952.46 286.562 956.652 289.628 962.044 289.628ZM963.244 285.196C960.124 285.196 957.871 283.793 957.871 281.06C957.871 278.105 960.493 277.053 963.688 276.628C965.479 276.388 969.726 275.908 970.52 275.114V278.77C970.52 282.131 967.842 285.196 963.244 285.196ZM987.753 260.636H981.696L990.412 274.818L981.586 289H987.642L994.013 278.401L1000.4 289H1006.44L997.522 274.818L1006.37 260.636H1000.33L994.013 271.679L987.753 260.636ZM1023.93 257.774H1035.51V289H1043.41V257.774H1054.99V251.182H1023.93V257.774ZM1060.53 289H1066.05V271.679C1066.05 267.967 1068.92 265.29 1072.83 265.29C1073.98 265.29 1075.27 265.493 1075.71 265.622V260.341C1075.16 260.267 1074.07 260.212 1073.37 260.212C1070.04 260.212 1067.2 262.095 1066.16 265.142H1065.87V260.636H1060.53V289ZM1091.7 289.572C1097.88 289.572 1102.26 286.526 1103.52 281.909L1098.29 280.967C1097.29 283.645 1094.89 285.011 1091.75 285.011C1087.03 285.011 1083.85 281.946 1083.7 276.48H1103.87V274.523C1103.87 264.274 1097.74 260.267 1091.31 260.267C1083.41 260.267 1078.2 266.287 1078.2 275.003C1078.2 283.811 1083.33 289.572 1091.7 289.572ZM1083.72 272.344C1083.94 268.318 1086.86 264.828 1091.35 264.828C1095.63 264.828 1098.44 268.004 1098.46 272.344H1083.72ZM1122.22 289.572C1128.4 289.572 1132.78 286.526 1134.04 281.909L1128.81 280.967C1127.81 283.645 1125.41 285.011 1122.27 285.011C1117.55 285.011 1114.37 281.946 1114.22 276.48H1134.39V274.523C1134.39 264.274 1128.26 260.267 1121.83 260.267C1113.93 260.267 1108.72 266.287 1108.72 275.003C1108.72 283.811 1113.85 289.572 1122.22 289.572ZM1114.24 272.344C1114.46 268.318 1117.38 264.828 1121.87 264.828C1126.15 264.828 1128.96 268.004 1128.98 272.344H1114.24Z" fill="black"/>
<path d="M884.773 361.909C884.784 359.659 886.125 358.341 888.08 358.341C890.023 358.341 891.193 359.614 891.182 361.75V372H896.023V360.886C896.023 356.818 893.636 354.318 890 354.318C887.409 354.318 885.534 355.591 884.75 357.625H884.545V354.545H879.932V372H884.773V361.909ZM907.724 372.341C913.02 372.341 916.315 368.716 916.315 363.341C916.315 357.932 913.02 354.318 907.724 354.318C902.429 354.318 899.134 357.932 899.134 363.341C899.134 368.716 902.429 372.341 907.724 372.341ZM907.747 368.591C905.304 368.591 904.054 366.352 904.054 363.307C904.054 360.261 905.304 358.011 907.747 358.011C910.145 358.011 911.395 360.261 911.395 363.307C911.395 366.352 910.145 368.591 907.747 368.591ZM928.747 354.545H925.463V350.364H920.622V354.545H918.236V358.182H920.622V367.273C920.599 370.693 922.929 372.386 926.44 372.239C927.69 372.193 928.577 371.943 929.065 371.784L928.304 368.182C928.065 368.227 927.554 368.341 927.099 368.341C926.134 368.341 925.463 367.977 925.463 366.636V358.182H928.747V354.545ZM931.901 372H936.741V354.545H931.901V372ZM934.332 352.295C935.776 352.295 936.957 351.193 936.957 349.841C936.957 348.5 935.776 347.398 934.332 347.398C932.901 347.398 931.719 348.5 931.719 349.841C931.719 351.193 932.901 352.295 934.332 352.295ZM948.506 372.341C953.801 372.341 957.097 368.716 957.097 363.341C957.097 357.932 953.801 354.318 948.506 354.318C943.21 354.318 939.915 357.932 939.915 363.341C939.915 368.716 943.21 372.341 948.506 372.341ZM948.528 368.591C946.085 368.591 944.835 366.352 944.835 363.307C944.835 360.261 946.085 358.011 948.528 358.011C950.926 358.011 952.176 360.261 952.176 363.307C952.176 366.352 950.926 368.591 948.528 368.591ZM965.085 361.909C965.097 359.659 966.438 358.341 968.392 358.341C970.335 358.341 971.506 359.614 971.494 361.75V372H976.335V360.886C976.335 356.818 973.949 354.318 970.312 354.318C967.722 354.318 965.847 355.591 965.062 357.625H964.858V354.545H960.244V372H965.085V361.909ZM989.435 354.545H986.151V350.364H981.31V354.545H978.923V358.182H981.31V367.273C981.287 370.693 983.616 372.386 987.128 372.239C988.378 372.193 989.264 371.943 989.753 371.784L988.991 368.182C988.753 368.227 988.241 368.341 987.787 368.341C986.821 368.341 986.151 367.977 986.151 366.636V358.182H989.435V354.545ZM996.031 372H1001.14L1004.14 361.023H1004.36L1007.36 372H1012.49L1017.22 354.545H1012.34L1009.68 366.205H1009.53L1006.67 354.545H1001.86L999.043 366.273H998.884L996.179 354.545H991.281L996.031 372ZM1027.32 372.341C1031.64 372.341 1034.55 370.239 1035.23 367L1030.76 366.705C1030.27 368.034 1029.02 368.727 1027.4 368.727C1024.98 368.727 1023.45 367.125 1023.45 364.523V364.511H1035.34V363.182C1035.34 357.25 1031.74 354.318 1027.13 354.318C1021.99 354.318 1018.66 357.966 1018.66 363.352C1018.66 368.886 1021.95 372.341 1027.32 372.341ZM1023.45 361.511C1023.55 359.523 1025.06 357.932 1027.21 357.932C1029.31 357.932 1030.77 359.432 1030.78 361.511H1023.45ZM1046.45 372.341C1050.77 372.341 1053.68 370.239 1054.36 367L1049.88 366.705C1049.39 368.034 1048.14 368.727 1046.53 368.727C1044.11 368.727 1042.57 367.125 1042.57 364.523V364.511H1054.46V363.182C1054.46 357.25 1050.87 354.318 1046.26 354.318C1041.12 354.318 1037.79 357.966 1037.79 363.352C1037.79 368.886 1041.07 372.341 1046.45 372.341ZM1042.57 361.511C1042.68 359.523 1044.19 357.932 1046.34 357.932C1048.44 357.932 1049.89 359.432 1049.9 361.511H1042.57ZM1066.9 354.545H1063.62V350.364H1058.78V354.545H1056.39V358.182H1058.78V367.273C1058.76 370.693 1061.09 372.386 1064.6 372.239C1065.85 372.193 1066.73 371.943 1067.22 371.784L1066.46 368.182C1066.22 368.227 1065.71 368.341 1065.26 368.341C1064.29 368.341 1063.62 367.977 1063.62 366.636V358.182H1066.9V354.545ZM1072.89 372.295C1074.34 372.295 1075.6 371.08 1075.61 369.568C1075.6 368.08 1074.34 366.864 1072.89 366.864C1071.39 366.864 1070.15 368.08 1070.16 369.568C1070.15 371.08 1071.39 372.295 1072.89 372.295ZM1084.57 372.33C1087.14 372.33 1088.82 371.205 1089.67 369.58H1089.8V372H1094.39V360.227C1094.39 356.068 1090.87 354.318 1086.99 354.318C1082.8 354.318 1080.05 356.318 1079.38 359.5L1083.86 359.864C1084.19 358.705 1085.22 357.852 1086.96 357.852C1088.61 357.852 1089.55 358.682 1089.55 360.114V360.182C1089.55 361.307 1088.36 361.455 1085.33 361.75C1081.87 362.068 1078.77 363.227 1078.77 367.125C1078.77 370.58 1081.24 372.33 1084.57 372.33ZM1085.95 368.989C1084.46 368.989 1083.39 368.295 1083.39 366.966C1083.39 365.602 1084.52 364.932 1086.22 364.693C1087.28 364.545 1089.01 364.295 1089.59 363.909V365.761C1089.59 367.591 1088.08 368.989 1085.95 368.989ZM1098.15 378.545H1102.99V369.205H1103.14C1103.81 370.659 1105.28 372.284 1108.09 372.284C1112.07 372.284 1115.17 369.136 1115.17 363.295C1115.17 357.295 1111.93 354.318 1108.11 354.318C1105.18 354.318 1103.79 356.057 1103.14 357.477H1102.92V354.545H1098.15V378.545ZM1102.89 363.273C1102.89 360.159 1104.21 358.17 1106.56 358.17C1108.96 358.17 1110.23 360.25 1110.23 363.273C1110.23 366.318 1108.93 368.432 1106.56 368.432C1104.23 368.432 1102.89 366.386 1102.89 363.273ZM1118.4 378.545H1123.24V369.205H1123.39C1124.06 370.659 1125.53 372.284 1128.34 372.284C1132.32 372.284 1135.42 369.136 1135.42 363.295C1135.42 357.295 1132.18 354.318 1128.36 354.318C1125.43 354.318 1124.04 356.057 1123.39 357.477H1123.17V354.545H1118.4V378.545ZM1123.14 363.273C1123.14 360.159 1124.46 358.17 1126.81 358.17C1129.21 358.17 1130.48 360.25 1130.48 363.273C1130.48 366.318 1129.18 368.432 1126.81 368.432C1124.48 368.432 1123.14 366.386 1123.14 363.273Z" fill="black" fill-opacity="0.6"/>
<path d="M755.397 372H758.508V369.454H758.774C759.349 370.498 760.521 372.32 763.504 372.32C767.467 372.32 770.344 369.145 770.344 363.85C770.344 358.545 767.425 355.423 763.472 355.423C760.436 355.423 759.339 357.277 758.774 358.289H758.582V350.182H755.397V372ZM758.518 363.818C758.518 360.398 760.01 358.129 762.79 358.129C765.678 358.129 767.126 360.569 767.126 363.818C767.126 367.099 765.635 369.603 762.79 369.603C760.053 369.603 758.518 367.259 758.518 363.818ZM775.348 378.136C777.98 378.136 779.642 376.762 780.59 374.184L787.355 355.668L783.914 355.636L779.769 368.335H779.599L775.455 355.636H772.046L778.033 372.213L777.639 373.3C776.829 375.473 775.689 375.654 773.942 375.175L773.175 377.785C773.558 377.955 774.389 378.136 775.348 378.136Z" fill="black" fill-opacity="0.6"/>
<g clip-path="url(#clip0)">
<path d="M817.404 342.819C819.145 344.233 819.798 344.125 823.07 343.906L853.905 342.056C854.558 342.056 854.014 341.402 853.797 341.295L848.673 337.592C847.693 336.831 846.384 335.959 843.878 336.176L814.023 338.355C812.936 338.462 812.717 339.008 813.151 339.442L817.404 342.819ZM819.255 350.005V382.448C819.255 384.191 820.125 384.844 822.087 384.735L855.974 382.775C857.937 382.667 858.156 381.468 858.156 380.052V347.826C858.156 346.412 857.612 345.649 856.411 345.756L820.998 347.826C819.691 347.936 819.255 348.589 819.255 350.003V350.005ZM811.517 335.415L842.574 333.128C846.387 332.802 847.369 333.019 849.765 334.762L859.68 341.729C861.313 342.926 861.859 343.253 861.859 344.559V382.775C861.859 385.169 860.989 386.587 857.939 386.802L821.87 388.981C819.584 389.091 818.492 388.764 817.292 387.238L809.991 377.765C808.685 376.022 808.141 374.718 808.141 373.192V339.223C808.141 337.265 809.014 335.63 811.517 335.415Z" fill="black"/>
<path d="M854.25 348.312C854.095 348.312 836.735 350.145 828.653 366.463C822.748 378.274 823.059 381.848 823.525 381.848C823.991 382.003 828.506 370.22 835.438 369.313C843.201 369.345 850.313 361.8 850.313 361.8C850.313 361.8 841.863 362.267 840.931 362.267C839.687 362.267 838.755 361.956 838.289 361.8C840.309 359.936 843.353 359.998 845.063 359.688C846.461 359.377 848.448 358.743 850.313 357.5C853.732 355.013 854.405 348.623 854.25 348.312Z" fill="black"/>
<path d="M838.5 377.625C838.5 379.075 836.887 380.25 835.438 380.25C833.988 380.25 833.25 379.075 833.25 377.625C833.25 376.175 834.863 375 836.312 375C837.762 375 838.5 376.175 838.5 377.625Z" fill="black"/>
</g>
<defs>
<clipPath id="clip0">
<rect width="56" height="56" fill="white" transform="translate(807 333)"/>
</clipPath>
</defs>
</svg>
