<svg width="1200" height="608" viewBox="0 0 1200 608" fill="none" xmlns="http://www.w3.org/2000/svg">
<rect width="1200" height="608" fill="#FFFEFC"/>
<path d="M884.773 380.909C884.784 378.659 886.125 377.341 888.08 377.341C890.023 377.341 891.193 378.614 891.182 380.75V391H896.023V379.886C896.023 375.818 893.636 373.318 890 373.318C887.409 373.318 885.534 374.591 884.75 376.625H884.545V373.545H879.932V391H884.773V380.909ZM907.724 391.341C913.02 391.341 916.315 387.716 916.315 382.341C916.315 376.932 913.02 373.318 907.724 373.318C902.429 373.318 899.134 376.932 899.134 382.341C899.134 387.716 902.429 391.341 907.724 391.341ZM907.747 387.591C905.304 387.591 904.054 385.352 904.054 382.307C904.054 379.261 905.304 377.011 907.747 377.011C910.145 377.011 911.395 379.261 911.395 382.307C911.395 385.352 910.145 387.591 907.747 387.591ZM928.747 373.545H925.463V369.364H920.622V373.545H918.236V377.182H920.622V386.273C920.599 389.693 922.929 391.386 926.44 391.239C927.69 391.193 928.577 390.943 929.065 390.784L928.304 387.182C928.065 387.227 927.554 387.341 927.099 387.341C926.134 387.341 925.463 386.977 925.463 385.636V377.182H928.747V373.545ZM931.901 391H936.741V373.545H931.901V391ZM934.332 371.295C935.776 371.295 936.957 370.193 936.957 368.841C936.957 367.5 935.776 366.398 934.332 366.398C932.901 366.398 931.719 367.5 931.719 368.841C931.719 370.193 932.901 371.295 934.332 371.295ZM948.506 391.341C953.801 391.341 957.097 387.716 957.097 382.341C957.097 376.932 953.801 373.318 948.506 373.318C943.21 373.318 939.915 376.932 939.915 382.341C939.915 387.716 943.21 391.341 948.506 391.341ZM948.528 387.591C946.085 387.591 944.835 385.352 944.835 382.307C944.835 379.261 946.085 377.011 948.528 377.011C950.926 377.011 952.176 379.261 952.176 382.307C952.176 385.352 950.926 387.591 948.528 387.591ZM965.085 380.909C965.097 378.659 966.438 377.341 968.392 377.341C970.335 377.341 971.506 378.614 971.494 380.75V391H976.335V379.886C976.335 375.818 973.949 373.318 970.312 373.318C967.722 373.318 965.847 374.591 965.062 376.625H964.858V373.545H960.244V391H965.085V380.909ZM989.435 373.545H986.151V369.364H981.31V373.545H978.923V377.182H981.31V386.273C981.287 389.693 983.616 391.386 987.128 391.239C988.378 391.193 989.264 390.943 989.753 390.784L988.991 387.182C988.753 387.227 988.241 387.341 987.787 387.341C986.821 387.341 986.151 386.977 986.151 385.636V377.182H989.435V373.545ZM996.031 391H1001.14L1004.14 380.023H1004.36L1007.36 391H1012.49L1017.22 373.545H1012.34L1009.68 385.205H1009.53L1006.67 373.545H1001.86L999.043 385.273H998.884L996.179 373.545H991.281L996.031 391ZM1027.32 391.341C1031.64 391.341 1034.55 389.239 1035.23 386L1030.76 385.705C1030.27 387.034 1029.02 387.727 1027.4 387.727C1024.98 387.727 1023.45 386.125 1023.45 383.523V383.511H1035.34V382.182C1035.34 376.25 1031.74 373.318 1027.13 373.318C1021.99 373.318 1018.66 376.966 1018.66 382.352C1018.66 387.886 1021.95 391.341 1027.32 391.341ZM1023.45 380.511C1023.55 378.523 1025.06 376.932 1027.21 376.932C1029.31 376.932 1030.77 378.432 1030.78 380.511H1023.45ZM1046.45 391.341C1050.77 391.341 1053.68 389.239 1054.36 386L1049.88 385.705C1049.39 387.034 1048.14 387.727 1046.53 387.727C1044.11 387.727 1042.57 386.125 1042.57 383.523V383.511H1054.46V382.182C1054.46 376.25 1050.87 373.318 1046.26 373.318C1041.12 373.318 1037.79 376.966 1037.79 382.352C1037.79 387.886 1041.07 391.341 1046.45 391.341ZM1042.57 380.511C1042.68 378.523 1044.19 376.932 1046.34 376.932C1048.44 376.932 1049.89 378.432 1049.9 380.511H1042.57ZM1066.9 373.545H1063.62V369.364H1058.78V373.545H1056.39V377.182H1058.78V386.273C1058.76 389.693 1061.09 391.386 1064.6 391.239C1065.85 391.193 1066.73 390.943 1067.22 390.784L1066.46 387.182C1066.22 387.227 1065.71 387.341 1065.26 387.341C1064.29 387.341 1063.62 386.977 1063.62 385.636V377.182H1066.9V373.545ZM1072.89 391.295C1074.34 391.295 1075.6 390.08 1075.61 388.568C1075.6 387.08 1074.34 385.864 1072.89 385.864C1071.39 385.864 1070.15 387.08 1070.16 388.568C1070.15 390.08 1071.39 391.295 1072.89 391.295ZM1084.57 391.33C1087.14 391.33 1088.82 390.205 1089.67 388.58H1089.8V391H1094.39V379.227C1094.39 375.068 1090.87 373.318 1086.99 373.318C1082.8 373.318 1080.05 375.318 1079.38 378.5L1083.86 378.864C1084.19 377.705 1085.22 376.852 1086.96 376.852C1088.61 376.852 1089.55 377.682 1089.55 379.114V379.182C1089.55 380.307 1088.36 380.455 1085.33 380.75C1081.87 381.068 1078.77 382.227 1078.77 386.125C1078.77 389.58 1081.24 391.33 1084.57 391.33ZM1085.95 387.989C1084.46 387.989 1083.39 387.295 1083.39 385.966C1083.39 384.602 1084.52 383.932 1086.22 383.693C1087.28 383.545 1089.01 383.295 1089.59 382.909V384.761C1089.59 386.591 1088.08 387.989 1085.95 387.989ZM1098.15 397.545H1102.99V388.205H1103.14C1103.81 389.659 1105.28 391.284 1108.09 391.284C1112.07 391.284 1115.17 388.136 1115.17 382.295C1115.17 376.295 1111.93 373.318 1108.11 373.318C1105.18 373.318 1103.79 375.057 1103.14 376.477H1102.92V373.545H1098.15V397.545ZM1102.89 382.273C1102.89 379.159 1104.21 377.17 1106.56 377.17C1108.96 377.17 1110.23 379.25 1110.23 382.273C1110.23 385.318 1108.93 387.432 1106.56 387.432C1104.23 387.432 1102.89 385.386 1102.89 382.273ZM1118.4 397.545H1123.24V388.205H1123.39C1124.06 389.659 1125.53 391.284 1128.34 391.284C1132.32 391.284 1135.42 388.136 1135.42 382.295C1135.42 376.295 1132.18 373.318 1128.36 373.318C1125.43 373.318 1124.04 375.057 1123.39 376.477H1123.17V373.545H1118.4V397.545ZM1123.14 382.273C1123.14 379.159 1124.46 377.17 1126.81 377.17C1129.21 377.17 1130.48 379.25 1130.48 382.273C1130.48 385.318 1129.18 387.432 1126.81 387.432C1124.48 387.432 1123.14 385.386 1123.14 382.273Z" fill="black" fill-opacity="0.6"/>
<path d="M755.397 391H758.508V388.454H758.774C759.349 389.498 760.521 391.32 763.504 391.32C767.467 391.32 770.344 388.145 770.344 382.85C770.344 377.545 767.425 374.423 763.472 374.423C760.436 374.423 759.339 376.277 758.774 377.289H758.582V369.182H755.397V391ZM758.518 382.818C758.518 379.398 760.01 377.129 762.79 377.129C765.678 377.129 767.126 379.569 767.126 382.818C767.126 386.099 765.635 388.603 762.79 388.603C760.053 388.603 758.518 386.259 758.518 382.818ZM775.348 397.136C777.98 397.136 779.642 395.762 780.59 393.184L787.355 374.668L783.914 374.636L779.769 387.335H779.599L775.455 374.636H772.046L778.033 391.213L777.639 392.3C776.829 394.473 775.689 394.654 773.942 394.175L773.175 396.785C773.558 396.955 774.389 397.136 775.348 397.136Z" fill="black" fill-opacity="0.6"/>
<g clip-path="url(#clip0)">
<path d="M817.404 361.819C819.145 363.233 819.798 363.125 823.07 362.906L853.905 361.056C854.558 361.056 854.014 360.402 853.797 360.295L848.673 356.592C847.693 355.831 846.384 354.959 843.878 355.176L814.023 357.355C812.936 357.462 812.717 358.008 813.151 358.442L817.404 361.819ZM819.255 369.005V401.448C819.255 403.191 820.125 403.844 822.087 403.735L855.974 401.775C857.937 401.667 858.156 400.468 858.156 399.052V366.826C858.156 365.412 857.612 364.649 856.411 364.756L820.998 366.826C819.691 366.936 819.255 367.589 819.255 369.003V369.005ZM811.517 354.415L842.574 352.128C846.387 351.802 847.369 352.019 849.765 353.762L859.68 360.729C861.313 361.926 861.859 362.253 861.859 363.559V401.775C861.859 404.169 860.989 405.587 857.939 405.802L821.87 407.981C819.584 408.091 818.492 407.764 817.292 406.238L809.991 396.765C808.685 395.022 808.141 393.718 808.141 392.192V358.223C808.141 356.265 809.014 354.63 811.517 354.415Z" fill="black"/>
<path d="M854.25 367.312C854.095 367.312 836.735 369.145 828.653 385.463C822.748 397.274 823.059 400.848 823.525 400.848C823.991 401.003 828.506 389.22 835.438 388.313C843.201 388.345 850.313 380.8 850.313 380.8C850.313 380.8 841.863 381.267 840.931 381.267C839.687 381.267 838.755 380.956 838.289 380.8C840.309 378.936 843.353 378.998 845.063 378.688C846.461 378.377 848.448 377.743 850.313 376.5C853.732 374.013 854.405 367.623 854.25 367.312Z" fill="black"/>
<path d="M838.5 396.625C838.5 398.075 836.887 399.25 835.438 399.25C833.988 399.25 833.25 398.075 833.25 396.625C833.25 395.175 834.863 394 836.312 394C837.762 394 838.5 395.175 838.5 396.625Z" fill="black"/>
</g>
<path d="M460.048 260.182H450.926V281.972H450.612L435.729 260.182H427.862V298H437.003V276.173H437.243L452.293 298H460.048V260.182ZM478.593 298.572C486.588 298.572 491.814 292.719 491.814 283.947C491.814 275.121 486.588 269.267 478.593 269.267C470.597 269.267 465.371 275.121 465.371 283.947C465.371 292.719 470.597 298.572 478.593 298.572ZM478.611 293.938C473.385 293.938 470.948 289.376 470.948 283.929C470.948 278.5 473.385 273.884 478.611 273.884C483.8 273.884 486.238 278.5 486.238 283.929C486.238 289.376 483.8 293.938 478.611 293.938ZM513.138 269.636H508.023V262.841H498.993V269.636H495.244V276.284H498.993V290.078C498.938 295.821 502.668 298.702 509.038 298.406C511.217 298.295 512.787 297.852 513.655 297.594L512.288 291.075C511.901 291.168 510.996 291.352 510.312 291.352C508.854 291.352 508.023 290.761 508.023 289.081V276.284H513.138V269.636ZM518.594 298H524.116V269.636H518.594V298ZM521.383 265.26C523.285 265.26 524.873 263.783 524.873 261.973C524.873 260.163 523.285 258.668 521.383 258.668C519.462 258.668 517.893 260.163 517.893 261.973C517.893 263.783 519.462 265.26 521.383 265.26ZM543.491 298.572C551.487 298.572 556.713 292.719 556.713 283.947C556.713 275.121 551.487 269.267 543.491 269.267C535.495 269.267 530.27 275.121 530.27 283.947C530.27 292.719 535.495 298.572 543.491 298.572ZM543.51 293.938C538.284 293.938 535.846 289.376 535.846 283.929C535.846 278.5 538.284 273.884 543.51 273.884C548.699 273.884 551.136 278.5 551.136 283.929C551.136 289.376 548.699 293.938 543.51 293.938ZM568.397 281.159C568.397 276.635 571.167 274.05 575.008 274.05C578.756 274.05 581.028 276.506 581.028 280.624V298H586.549V279.959C586.549 272.942 582.69 269.267 576.891 269.267C572.626 269.267 569.837 271.243 568.526 274.253H568.175V269.636H562.876V298H568.397V281.159ZM615.047 298L617.539 290.06H630.595L633.088 298H642.912L630.152 260.182H617.983L605.223 298H615.047ZM619.718 283.116L623.91 269.71H624.206L628.416 283.116H619.718ZM648.276 298H653.668V293.587H654.13C655.127 295.396 657.158 298.554 662.328 298.554C669.198 298.554 674.184 293.051 674.184 283.874C674.184 274.678 669.124 269.267 662.273 269.267C657.01 269.267 655.108 272.48 654.13 274.234H653.797V260.182H648.276V298ZM653.686 283.818C653.686 277.891 656.272 273.957 661.091 273.957C666.096 273.957 668.607 278.186 668.607 283.818C668.607 289.506 666.022 293.845 661.091 293.845C656.346 293.845 653.686 289.783 653.686 283.818ZM701.638 276.561C700.493 272.148 697.04 269.267 690.909 269.267C684.501 269.267 679.959 272.646 679.959 277.669C679.959 281.695 682.396 284.372 687.714 285.554L692.516 286.607C695.249 287.216 696.523 288.435 696.523 290.207C696.523 292.405 694.178 294.122 690.558 294.122C687.253 294.122 685.129 292.7 684.464 289.912L679.128 290.724C680.051 295.747 684.224 298.572 690.595 298.572C697.446 298.572 702.192 294.935 702.192 289.801C702.192 285.794 699.643 283.32 694.436 282.119L689.93 281.085C686.81 280.347 685.462 279.294 685.48 277.374C685.462 275.195 687.825 273.643 690.964 273.643C694.399 273.643 695.987 275.545 696.634 277.447L701.638 276.561ZM721.502 269.636H715.686V262.841H710.164V269.636H706.01V274.068H710.164V290.817C710.146 295.969 714.079 298.462 718.437 298.369C720.191 298.351 721.373 298.018 722.02 297.778L721.022 293.217C720.653 293.291 719.97 293.457 719.083 293.457C717.292 293.457 715.686 292.866 715.686 289.672V274.068H721.502V269.636ZM727.61 298H733.131V280.679C733.131 276.967 735.994 274.29 739.908 274.29C741.053 274.29 742.346 274.493 742.789 274.622V269.341C742.235 269.267 741.146 269.212 740.444 269.212C737.12 269.212 734.276 271.095 733.242 274.142H732.947V269.636H727.61V298ZM755.567 298.628C760.258 298.628 762.898 296.246 763.951 294.122H764.173V298H769.565V279.165C769.565 270.911 763.065 269.267 758.559 269.267C753.425 269.267 748.698 271.335 746.852 276.506L752.04 277.688C752.853 275.675 754.921 273.736 758.633 273.736C762.197 273.736 764.025 275.601 764.025 278.814V278.943C764.025 280.956 761.957 280.919 756.86 281.51C751.487 282.138 745.984 283.541 745.984 289.986C745.984 295.562 750.175 298.628 755.567 298.628ZM756.768 294.196C753.647 294.196 751.394 292.793 751.394 290.06C751.394 287.105 754.016 286.053 757.211 285.628C759.002 285.388 763.249 284.908 764.043 284.114V287.77C764.043 291.131 761.366 294.196 756.768 294.196ZM788.866 298.572C795.569 298.572 799.909 294.547 800.518 289.026H795.145C794.443 292.091 792.061 293.901 788.903 293.901C784.231 293.901 781.221 290.004 781.221 283.818C781.221 277.743 784.287 273.92 788.903 273.92C792.412 273.92 794.554 276.136 795.145 278.795H800.518C799.927 273.071 795.255 269.267 788.811 269.267C780.815 269.267 775.645 275.287 775.645 283.947C775.645 292.497 780.63 298.572 788.866 298.572ZM819.663 269.636H813.846V262.841H808.325V269.636H804.17V274.068H808.325V290.817C808.306 295.969 812.239 298.462 816.597 298.369C818.352 298.351 819.533 298.018 820.18 297.778L819.183 293.217C818.813 293.291 818.13 293.457 817.244 293.457C815.452 293.457 813.846 292.866 813.846 289.672V274.068H819.663V269.636ZM859.124 271.52H867.877C867.803 264.447 862.171 259.665 853.381 259.665C844.739 259.665 838.516 264.374 838.572 271.409C838.553 277.152 842.579 280.384 849.116 281.879L853.067 282.803C857.222 283.763 859.087 284.889 859.124 287.013C859.087 289.321 856.927 290.928 853.252 290.928C849.208 290.928 846.549 289.044 846.346 285.406H837.593C837.704 294.251 843.853 298.48 853.363 298.48C862.781 298.48 868.357 294.214 868.394 287.031C868.357 280.993 864.276 277.3 856.816 275.656L853.566 274.918C850.131 274.179 847.952 273.034 848.026 270.781C848.045 268.713 849.817 267.217 853.363 267.217C856.927 267.217 858.884 268.824 859.124 271.52ZM877.35 308.636C881.911 308.636 884.792 306.254 886.435 301.786L898.161 269.692L892.197 269.636L885.013 291.648H884.718L877.535 269.636H871.626L882.004 298.369L881.32 300.253C879.917 304.02 877.941 304.334 874.913 303.503L873.583 308.027C874.248 308.322 875.688 308.636 877.35 308.636ZM908.885 281.159C908.885 276.635 911.655 274.05 915.496 274.05C919.245 274.05 921.516 276.506 921.516 280.624V298H927.037V279.959C927.037 272.942 923.178 269.267 917.38 269.267C913.114 269.267 910.326 271.243 909.015 274.253H908.664V269.636H903.364V298H908.885V281.159ZM947.682 269.636H941.865V262.841H936.344V269.636H932.189V274.068H936.344V290.817C936.326 295.969 940.259 298.462 944.617 298.369C946.371 298.351 947.553 298.018 948.199 297.778L947.202 293.217C946.833 293.291 946.15 293.457 945.263 293.457C943.472 293.457 941.865 292.866 941.865 289.672V274.068H947.682V269.636ZM962.044 298.628C966.734 298.628 969.375 296.246 970.428 294.122H970.649V298H976.041V279.165C976.041 270.911 969.541 269.267 965.036 269.267C959.902 269.267 955.175 271.335 953.328 276.506L958.517 277.688C959.33 275.675 961.398 273.736 965.109 273.736C968.673 273.736 970.501 275.601 970.501 278.814V278.943C970.501 280.956 968.433 280.919 963.337 281.51C957.963 282.138 952.46 283.541 952.46 289.986C952.46 295.562 956.652 298.628 962.044 298.628ZM963.244 294.196C960.124 294.196 957.871 292.793 957.871 290.06C957.871 287.105 960.493 286.053 963.688 285.628C965.479 285.388 969.726 284.908 970.52 284.114V287.77C970.52 291.131 967.842 294.196 963.244 294.196ZM987.753 269.636H981.696L990.412 283.818L981.586 298H987.642L994.013 287.401L1000.4 298H1006.44L997.522 283.818L1006.37 269.636H1000.33L994.013 280.679L987.753 269.636ZM1023.93 266.774H1035.51V298H1043.41V266.774H1054.99V260.182H1023.93V266.774ZM1060.53 298H1066.05V280.679C1066.05 276.967 1068.92 274.29 1072.83 274.29C1073.98 274.29 1075.27 274.493 1075.71 274.622V269.341C1075.16 269.267 1074.07 269.212 1073.37 269.212C1070.04 269.212 1067.2 271.095 1066.16 274.142H1065.87V269.636H1060.53V298ZM1091.7 298.572C1097.88 298.572 1102.26 295.526 1103.52 290.909L1098.29 289.967C1097.29 292.645 1094.89 294.011 1091.75 294.011C1087.03 294.011 1083.85 290.946 1083.7 285.48H1103.87V283.523C1103.87 273.274 1097.74 269.267 1091.31 269.267C1083.41 269.267 1078.2 275.287 1078.2 284.003C1078.2 292.811 1083.33 298.572 1091.7 298.572ZM1083.72 281.344C1083.94 277.318 1086.86 273.828 1091.35 273.828C1095.63 273.828 1098.44 277.004 1098.46 281.344H1083.72ZM1122.22 298.572C1128.4 298.572 1132.78 295.526 1134.04 290.909L1128.81 289.967C1127.81 292.645 1125.41 294.011 1122.27 294.011C1117.55 294.011 1114.37 290.946 1114.22 285.48H1134.39V283.523C1134.39 273.274 1128.26 269.267 1121.83 269.267C1113.93 269.267 1108.72 275.287 1108.72 284.003C1108.72 292.811 1113.85 298.572 1122.22 298.572ZM1114.24 281.344C1114.46 277.318 1117.38 273.828 1121.87 273.828C1126.15 273.828 1128.96 277.004 1128.98 281.344H1114.24Z" fill="black"/>
<path d="M92.0763 228.034C96.9763 232.015 98.8154 231.712 108.024 231.095L350.609 226.49C352.448 226.49 350.917 224.651 350.306 224.349L335.882 213.925C333.124 211.784 329.439 209.327 322.384 209.938L82.5588 215.469C79.4979 215.771 78.8805 217.308 80.1022 218.53L92.0763 228.034ZM97.285 339.591C97.285 344.497 99.735 346.336 105.259 346.028L356.435 341.114C361.959 340.812 362.576 337.436 362.576 333.449V242.734C362.576 238.753 361.046 236.605 357.663 236.908L102.192 242.13C98.5133 242.439 97.285 244.278 97.285 248.258V339.591ZM75.5044 207.193L318.713 201.36C329.445 200.44 332.211 201.051 338.956 205.957L366.865 225.571C371.463 228.94 373 229.86 373 233.538V341.114C373 347.853 370.55 351.847 361.965 352.451L104.648 357.982C98.2111 358.291 95.1372 357.371 91.761 353.075L71.2087 326.408C67.5304 321.501 66 317.83 66 313.534V217.912C66 212.401 68.4566 207.797 75.5044 207.193Z" fill="black"/>
<path d="M136.499 293.241C136.529 287.977 139.597 284.849 144.259 284.849C148.922 284.849 151.689 287.917 151.659 293.03V319.59H166.367V290.143C166.398 279.735 160.051 272.787 150.335 272.787C143.507 272.787 138.334 276.246 136.289 281.871H135.777V273.389H121.79V319.59H136.499V293.241Z" fill="black"/>
<path d="M201.552 273.389H193.22V262.32H178.512V273.389H172.406V284.217H178.512V306.686C178.422 316.041 184.498 320.733 194.875 320.252C198.424 320.071 200.981 319.349 202.395 318.928L200.169 308.31C199.537 308.461 198.063 308.762 196.95 308.762C194.574 308.762 193.22 307.799 193.22 305.062V284.217H201.552V273.389Z" fill="black"/>
<path d="M223.886 320.613C231.526 320.613 235.827 316.733 237.542 313.273H237.903V319.59H246.686V288.909C246.686 275.464 236.098 272.787 228.759 272.787C220.397 272.787 212.697 276.156 209.689 284.578L218.141 286.503C219.464 283.225 222.833 280.066 228.879 280.066C234.684 280.066 237.662 283.104 237.662 288.338V288.549C237.662 291.827 234.293 291.767 225.992 292.729C217.239 293.752 208.275 296.038 208.275 306.536C208.275 315.62 215.103 320.613 223.886 320.613ZM225.841 313.394C220.758 313.394 217.088 311.108 217.088 306.656C217.088 301.843 221.359 300.129 226.563 299.437C229.481 299.046 236.399 298.264 237.692 296.971V302.926C237.692 308.401 233.331 313.394 225.841 313.394Z" fill="black"/>
<path d="M293.286 284.668C291.421 277.479 285.796 272.787 275.81 272.787C265.372 272.787 257.973 278.292 257.973 286.473C257.973 293.03 261.943 297.392 270.606 299.317L278.427 301.031C282.878 302.024 284.954 304.009 284.954 306.897C284.954 310.476 281.134 313.273 275.238 313.273C269.854 313.273 266.395 310.957 265.312 306.415L256.619 307.739C258.123 315.92 264.921 320.522 275.298 320.522C286.458 320.522 294.188 314.597 294.188 306.235C294.188 299.708 290.037 295.677 281.555 293.722L274.216 292.038C269.132 290.835 266.937 289.12 266.967 285.992C266.937 282.442 270.787 279.916 275.9 279.916C281.495 279.916 284.082 283.014 285.134 286.112L293.286 284.668Z" fill="black"/>
<path d="M325.643 273.389H316.168V262.32H307.175V273.389H300.407V280.608H307.175V307.889C307.145 316.281 313.551 320.342 320.65 320.192C323.508 320.162 325.433 319.62 326.485 319.229L324.861 311.8C324.26 311.92 323.147 312.191 321.703 312.191C318.785 312.191 316.168 311.228 316.168 306.024V280.608H325.643V273.389Z" fill="black"/>
<defs>
<clipPath id="clip0">
<rect width="56" height="56" fill="white" transform="translate(807 352)"/>
</clipPath>
</defs>
</svg>
