<svg width="1200" height="608" viewBox="0 0 1200 608" fill="none" xmlns="http://www.w3.org/2000/svg">
<rect width="1200" height="608" fill="#FFFEFC"/>
<path d="M92.0763 219.034C96.9763 223.015 98.8154 222.712 108.024 222.095L350.609 217.49C352.448 217.49 350.917 215.651 350.306 215.349L335.882 204.925C333.124 202.784 329.439 200.327 322.384 200.938L82.5588 206.469C79.4979 206.771 78.8805 208.308 80.1022 209.53L92.0763 219.034ZM97.285 330.591C97.285 335.497 99.735 337.336 105.259 337.028L356.435 332.114C361.959 331.812 362.576 328.436 362.576 324.449V233.734C362.576 229.753 361.046 227.605 357.663 227.908L102.192 233.13C98.5133 233.439 97.285 235.278 97.285 239.258V330.591ZM75.5044 198.193L318.713 192.36C329.445 191.44 332.211 192.051 338.956 196.957L366.865 216.571C371.463 219.94 373 220.86 373 224.538V332.114C373 338.853 370.55 342.847 361.965 343.451L104.648 348.982C98.2111 349.291 95.1372 348.371 91.761 344.075L71.2087 317.408C67.5304 312.501 66 308.83 66 304.534V208.912C66 203.401 68.4566 198.797 75.5044 198.193Z" fill="black"/>
<path d="M136.499 284.241C136.529 278.977 139.597 275.849 144.259 275.849C148.922 275.849 151.689 278.917 151.659 284.03V310.59H166.367V281.143C166.398 270.735 160.051 263.787 150.335 263.787C143.507 263.787 138.334 267.246 136.289 272.871H135.777V264.389H121.79V310.59H136.499V284.241Z" fill="black"/>
<path d="M201.552 264.389H193.22V253.32H178.512V264.389H172.406V275.217H178.512V297.686C178.422 307.041 184.498 311.733 194.875 311.252C198.424 311.071 200.981 310.349 202.395 309.928L200.169 299.31C199.537 299.461 198.063 299.762 196.95 299.762C194.574 299.762 193.22 298.799 193.22 296.062V275.217H201.552V264.389Z" fill="black"/>
<path d="M223.886 311.613C231.526 311.613 235.827 307.733 237.542 304.273H237.903V310.59H246.686V279.909C246.686 266.464 236.098 263.787 228.759 263.787C220.397 263.787 212.697 267.156 209.689 275.578L218.141 277.503C219.464 274.225 222.833 271.066 228.879 271.066C234.684 271.066 237.662 274.104 237.662 279.338V279.549C237.662 282.827 234.293 282.767 225.992 283.729C217.239 284.752 208.275 287.038 208.275 297.536C208.275 306.62 215.103 311.613 223.886 311.613ZM225.841 304.394C220.758 304.394 217.088 302.108 217.088 297.656C217.088 292.843 221.359 291.129 226.563 290.437C229.481 290.046 236.399 289.264 237.692 287.971V293.926C237.692 299.401 233.331 304.394 225.841 304.394Z" fill="black"/>
<path d="M293.286 275.668C291.421 268.479 285.796 263.787 275.81 263.787C265.372 263.787 257.973 269.292 257.973 277.473C257.973 284.03 261.943 288.392 270.606 290.317L278.427 292.031C282.878 293.024 284.954 295.009 284.954 297.897C284.954 301.476 281.134 304.273 275.238 304.273C269.854 304.273 266.395 301.957 265.312 297.415L256.619 298.739C258.123 306.92 264.921 311.522 275.298 311.522C286.458 311.522 294.188 305.597 294.188 297.235C294.188 290.708 290.037 286.677 281.555 284.722L274.216 283.038C269.132 281.835 266.937 280.12 266.967 276.992C266.937 273.442 270.787 270.916 275.9 270.916C281.495 270.916 284.082 274.014 285.134 277.112L293.286 275.668Z" fill="black"/>
<path d="M325.643 264.389H316.168V253.32H307.175V264.389H300.407V271.608H307.175V298.889C307.145 307.281 313.551 311.342 320.65 311.192C323.508 311.162 325.433 310.62 326.485 310.229L324.861 302.8C324.26 302.92 323.147 303.191 321.703 303.191C318.785 303.191 316.168 302.228 316.168 297.024V271.608H325.643V264.389Z" fill="black"/>
<path d="M460.048 251.182H450.926V272.972H450.612L435.729 251.182H427.862V289H437.003V267.173H437.243L452.293 289H460.048V251.182ZM478.593 289.572C486.588 289.572 491.814 283.719 491.814 274.947C491.814 266.121 486.588 260.267 478.593 260.267C470.597 260.267 465.371 266.121 465.371 274.947C465.371 283.719 470.597 289.572 478.593 289.572ZM478.611 284.938C473.385 284.938 470.948 280.376 470.948 274.929C470.948 269.5 473.385 264.884 478.611 264.884C483.8 264.884 486.238 269.5 486.238 274.929C486.238 280.376 483.8 284.938 478.611 284.938ZM513.138 260.636H508.023V253.841H498.993V260.636H495.244V267.284H498.993V281.078C498.938 286.821 502.668 289.702 509.038 289.406C511.217 289.295 512.787 288.852 513.655 288.594L512.288 282.075C511.901 282.168 510.996 282.352 510.312 282.352C508.854 282.352 508.023 281.761 508.023 280.081V267.284H513.138V260.636ZM518.594 289H524.116V260.636H518.594V289ZM521.383 256.26C523.285 256.26 524.873 254.783 524.873 252.973C524.873 251.163 523.285 249.668 521.383 249.668C519.462 249.668 517.893 251.163 517.893 252.973C517.893 254.783 519.462 256.26 521.383 256.26ZM543.491 289.572C551.487 289.572 556.713 283.719 556.713 274.947C556.713 266.121 551.487 260.267 543.491 260.267C535.495 260.267 530.27 266.121 530.27 274.947C530.27 283.719 535.495 289.572 543.491 289.572ZM543.51 284.938C538.284 284.938 535.846 280.376 535.846 274.929C535.846 269.5 538.284 264.884 543.51 264.884C548.699 264.884 551.136 269.5 551.136 274.929C551.136 280.376 548.699 284.938 543.51 284.938ZM568.397 272.159C568.397 267.635 571.167 265.05 575.008 265.05C578.756 265.05 581.028 267.506 581.028 271.624V289H586.549V270.959C586.549 263.942 582.69 260.267 576.891 260.267C572.626 260.267 569.837 262.243 568.526 265.253H568.175V260.636H562.876V289H568.397V272.159ZM615.047 289L617.539 281.06H630.595L633.088 289H642.912L630.152 251.182H617.983L605.223 289H615.047ZM619.718 274.116L623.91 260.71H624.206L628.416 274.116H619.718ZM648.276 289H653.668V284.587H654.13C655.127 286.396 657.158 289.554 662.328 289.554C669.198 289.554 674.184 284.051 674.184 274.874C674.184 265.678 669.124 260.267 662.273 260.267C657.01 260.267 655.108 263.48 654.13 265.234H653.797V251.182H648.276V289ZM653.686 274.818C653.686 268.891 656.272 264.957 661.091 264.957C666.096 264.957 668.607 269.186 668.607 274.818C668.607 280.506 666.022 284.845 661.091 284.845C656.346 284.845 653.686 280.783 653.686 274.818ZM701.638 267.561C700.493 263.148 697.04 260.267 690.909 260.267C684.501 260.267 679.959 263.646 679.959 268.669C679.959 272.695 682.396 275.372 687.714 276.554L692.516 277.607C695.249 278.216 696.523 279.435 696.523 281.207C696.523 283.405 694.178 285.122 690.558 285.122C687.253 285.122 685.129 283.7 684.464 280.912L679.128 281.724C680.051 286.747 684.224 289.572 690.595 289.572C697.446 289.572 702.192 285.935 702.192 280.801C702.192 276.794 699.643 274.32 694.436 273.119L689.93 272.085C686.81 271.347 685.462 270.294 685.48 268.374C685.462 266.195 687.825 264.643 690.964 264.643C694.399 264.643 695.987 266.545 696.634 268.447L701.638 267.561ZM721.502 260.636H715.686V253.841H710.164V260.636H706.01V265.068H710.164V281.817C710.146 286.969 714.079 289.462 718.437 289.369C720.191 289.351 721.373 289.018 722.02 288.778L721.022 284.217C720.653 284.291 719.97 284.457 719.083 284.457C717.292 284.457 715.686 283.866 715.686 280.672V265.068H721.502V260.636ZM727.61 289H733.131V271.679C733.131 267.967 735.994 265.29 739.908 265.29C741.053 265.29 742.346 265.493 742.789 265.622V260.341C742.235 260.267 741.146 260.212 740.444 260.212C737.12 260.212 734.276 262.095 733.242 265.142H732.947V260.636H727.61V289ZM755.567 289.628C760.258 289.628 762.898 287.246 763.951 285.122H764.173V289H769.565V270.165C769.565 261.911 763.065 260.267 758.559 260.267C753.425 260.267 748.698 262.335 746.852 267.506L752.04 268.688C752.853 266.675 754.921 264.736 758.633 264.736C762.197 264.736 764.025 266.601 764.025 269.814V269.943C764.025 271.956 761.957 271.919 756.86 272.51C751.487 273.138 745.984 274.541 745.984 280.986C745.984 286.562 750.175 289.628 755.567 289.628ZM756.768 285.196C753.647 285.196 751.394 283.793 751.394 281.06C751.394 278.105 754.016 277.053 757.211 276.628C759.002 276.388 763.249 275.908 764.043 275.114V278.77C764.043 282.131 761.366 285.196 756.768 285.196ZM788.866 289.572C795.569 289.572 799.909 285.547 800.518 280.026H795.145C794.443 283.091 792.061 284.901 788.903 284.901C784.231 284.901 781.221 281.004 781.221 274.818C781.221 268.743 784.287 264.92 788.903 264.92C792.412 264.92 794.554 267.136 795.145 269.795H800.518C799.927 264.071 795.255 260.267 788.811 260.267C780.815 260.267 775.645 266.287 775.645 274.947C775.645 283.497 780.63 289.572 788.866 289.572ZM819.663 260.636H813.846V253.841H808.325V260.636H804.17V265.068H808.325V281.817C808.306 286.969 812.239 289.462 816.597 289.369C818.352 289.351 819.533 289.018 820.18 288.778L819.183 284.217C818.813 284.291 818.13 284.457 817.244 284.457C815.452 284.457 813.846 283.866 813.846 280.672V265.068H819.663V260.636ZM859.124 262.52H867.877C867.803 255.447 862.171 250.665 853.381 250.665C844.739 250.665 838.516 255.374 838.572 262.409C838.553 268.152 842.579 271.384 849.116 272.879L853.067 273.803C857.222 274.763 859.087 275.889 859.124 278.013C859.087 280.321 856.927 281.928 853.252 281.928C849.208 281.928 846.549 280.044 846.346 276.406H837.593C837.704 285.251 843.853 289.48 853.363 289.48C862.781 289.48 868.357 285.214 868.394 278.031C868.357 271.993 864.276 268.3 856.816 266.656L853.566 265.918C850.131 265.179 847.952 264.034 848.026 261.781C848.045 259.713 849.817 258.217 853.363 258.217C856.927 258.217 858.884 259.824 859.124 262.52ZM877.35 299.636C881.911 299.636 884.792 297.254 886.435 292.786L898.161 260.692L892.197 260.636L885.013 282.648H884.718L877.535 260.636H871.626L882.004 289.369L881.32 291.253C879.917 295.02 877.941 295.334 874.913 294.503L873.583 299.027C874.248 299.322 875.688 299.636 877.35 299.636ZM908.885 272.159C908.885 267.635 911.655 265.05 915.496 265.05C919.245 265.05 921.516 267.506 921.516 271.624V289H927.037V270.959C927.037 263.942 923.178 260.267 917.38 260.267C913.114 260.267 910.326 262.243 909.015 265.253H908.664V260.636H903.364V289H908.885V272.159ZM947.682 260.636H941.865V253.841H936.344V260.636H932.189V265.068H936.344V281.817C936.326 286.969 940.259 289.462 944.617 289.369C946.371 289.351 947.553 289.018 948.199 288.778L947.202 284.217C946.833 284.291 946.15 284.457 945.263 284.457C943.472 284.457 941.865 283.866 941.865 280.672V265.068H947.682V260.636ZM962.044 289.628C966.734 289.628 969.375 287.246 970.428 285.122H970.649V289H976.041V270.165C976.041 261.911 969.541 260.267 965.036 260.267C959.902 260.267 955.175 262.335 953.328 267.506L958.517 268.688C959.33 266.675 961.398 264.736 965.109 264.736C968.673 264.736 970.501 266.601 970.501 269.814V269.943C970.501 271.956 968.433 271.919 963.337 272.51C957.963 273.138 952.46 274.541 952.46 280.986C952.46 286.562 956.652 289.628 962.044 289.628ZM963.244 285.196C960.124 285.196 957.871 283.793 957.871 281.06C957.871 278.105 960.493 277.053 963.688 276.628C965.479 276.388 969.726 275.908 970.52 275.114V278.77C970.52 282.131 967.842 285.196 963.244 285.196ZM987.753 260.636H981.696L990.412 274.818L981.586 289H987.642L994.013 278.401L1000.4 289H1006.44L997.522 274.818L1006.37 260.636H1000.33L994.013 271.679L987.753 260.636ZM1024.38 256.094H1036.16V289H1041.84V256.094H1053.64V251.182H1024.38V256.094ZM1056.72 289H1062.24V271.679C1062.24 267.967 1065.11 265.29 1069.02 265.29C1070.17 265.29 1071.46 265.493 1071.9 265.622V260.341C1071.35 260.267 1070.26 260.212 1069.56 260.212C1066.23 260.212 1063.39 262.095 1062.36 265.142H1062.06V260.636H1056.72V289ZM1087.89 289.572C1094.08 289.572 1098.45 286.526 1099.71 281.909L1094.48 280.967C1093.48 283.645 1091.08 285.011 1087.94 285.011C1083.22 285.011 1080.04 281.946 1079.89 276.48H1100.06V274.523C1100.06 264.274 1093.93 260.267 1087.5 260.267C1079.6 260.267 1074.39 266.287 1074.39 275.003C1074.39 283.811 1079.52 289.572 1087.89 289.572ZM1079.91 272.344C1080.13 268.318 1083.05 264.828 1087.54 264.828C1091.82 264.828 1094.63 268.004 1094.65 272.344H1079.91ZM1118.41 289.572C1124.59 289.572 1128.97 286.526 1130.23 281.909L1125 280.967C1124 283.645 1121.6 285.011 1118.46 285.011C1113.74 285.011 1110.56 281.946 1110.41 276.48H1130.58V274.523C1130.58 264.274 1124.45 260.267 1118.02 260.267C1110.12 260.267 1104.91 266.287 1104.91 275.003C1104.91 283.811 1110.04 289.572 1118.41 289.572ZM1110.43 272.344C1110.65 268.318 1113.57 264.828 1118.06 264.828C1122.34 264.828 1125.15 268.004 1125.17 272.344H1110.43Z" fill="black"/>
<path d="M880.773 361.909C880.784 359.659 882.125 358.341 884.08 358.341C886.023 358.341 887.193 359.614 887.182 361.75V372H892.023V360.886C892.023 356.818 889.636 354.318 886 354.318C883.409 354.318 881.534 355.591 880.75 357.625H880.545V354.545H875.932V372H880.773V361.909ZM903.724 372.341C909.02 372.341 912.315 368.716 912.315 363.341C912.315 357.932 909.02 354.318 903.724 354.318C898.429 354.318 895.134 357.932 895.134 363.341C895.134 368.716 898.429 372.341 903.724 372.341ZM903.747 368.591C901.304 368.591 900.054 366.352 900.054 363.307C900.054 360.261 901.304 358.011 903.747 358.011C906.145 358.011 907.395 360.261 907.395 363.307C907.395 366.352 906.145 368.591 903.747 368.591ZM924.747 354.545H921.463V350.364H916.622V354.545H914.236V358.182H916.622V367.273C916.599 370.693 918.929 372.386 922.44 372.239C923.69 372.193 924.577 371.943 925.065 371.784L924.304 368.182C924.065 368.227 923.554 368.341 923.099 368.341C922.134 368.341 921.463 367.977 921.463 366.636V358.182H924.747V354.545ZM927.901 372H932.741V354.545H927.901V372ZM930.332 352.295C931.776 352.295 932.957 351.193 932.957 349.841C932.957 348.5 931.776 347.398 930.332 347.398C928.901 347.398 927.719 348.5 927.719 349.841C927.719 351.193 928.901 352.295 930.332 352.295ZM944.506 372.341C949.801 372.341 953.097 368.716 953.097 363.341C953.097 357.932 949.801 354.318 944.506 354.318C939.21 354.318 935.915 357.932 935.915 363.341C935.915 368.716 939.21 372.341 944.506 372.341ZM944.528 368.591C942.085 368.591 940.835 366.352 940.835 363.307C940.835 360.261 942.085 358.011 944.528 358.011C946.926 358.011 948.176 360.261 948.176 363.307C948.176 366.352 946.926 368.591 944.528 368.591ZM961.085 361.909C961.097 359.659 962.438 358.341 964.392 358.341C966.335 358.341 967.506 359.614 967.494 361.75V372H972.335V360.886C972.335 356.818 969.949 354.318 966.312 354.318C963.722 354.318 961.847 355.591 961.062 357.625H960.858V354.545H956.244V372H961.085V361.909ZM985.435 354.545H982.151V350.364H977.31V354.545H974.923V358.182H977.31V367.273C977.287 370.693 979.616 372.386 983.128 372.239C984.378 372.193 985.264 371.943 985.753 371.784L984.991 368.182C984.753 368.227 984.241 368.341 983.787 368.341C982.821 368.341 982.151 367.977 982.151 366.636V358.182H985.435V354.545ZM992.031 372H997.145L1000.14 361.023H1000.36L1003.36 372H1008.49L1013.22 354.545H1008.34L1005.68 366.205H1005.53L1002.67 354.545H997.861L995.043 366.273H994.884L992.179 354.545H987.281L992.031 372ZM1023.32 372.341C1027.64 372.341 1030.55 370.239 1031.23 367L1026.76 366.705C1026.27 368.034 1025.02 368.727 1023.4 368.727C1020.98 368.727 1019.45 367.125 1019.45 364.523V364.511H1031.34V363.182C1031.34 357.25 1027.74 354.318 1023.13 354.318C1017.99 354.318 1014.66 357.966 1014.66 363.352C1014.66 368.886 1017.95 372.341 1023.32 372.341ZM1019.45 361.511C1019.55 359.523 1021.06 357.932 1023.21 357.932C1025.31 357.932 1026.77 359.432 1026.78 361.511H1019.45ZM1042.45 372.341C1046.77 372.341 1049.68 370.239 1050.36 367L1045.88 366.705C1045.39 368.034 1044.14 368.727 1042.53 368.727C1040.11 368.727 1038.57 367.125 1038.57 364.523V364.511H1050.46V363.182C1050.46 357.25 1046.87 354.318 1042.26 354.318C1037.12 354.318 1033.79 357.966 1033.79 363.352C1033.79 368.886 1037.07 372.341 1042.45 372.341ZM1038.57 361.511C1038.68 359.523 1040.19 357.932 1042.34 357.932C1044.44 357.932 1045.89 359.432 1045.9 361.511H1038.57ZM1062.9 354.545H1059.62V350.364H1054.78V354.545H1052.39V358.182H1054.78V367.273C1054.76 370.693 1057.09 372.386 1060.6 372.239C1061.85 372.193 1062.73 371.943 1063.22 371.784L1062.46 368.182C1062.22 368.227 1061.71 368.341 1061.26 368.341C1060.29 368.341 1059.62 367.977 1059.62 366.636V358.182H1062.9V354.545ZM1068.89 372.295C1070.34 372.295 1071.6 371.08 1071.61 369.568C1071.6 368.08 1070.34 366.864 1068.89 366.864C1067.39 366.864 1066.15 368.08 1066.16 369.568C1066.15 371.08 1067.39 372.295 1068.89 372.295ZM1080.57 372.33C1083.14 372.33 1084.82 371.205 1085.67 369.58H1085.8V372H1090.39V360.227C1090.39 356.068 1086.87 354.318 1082.99 354.318C1078.8 354.318 1076.05 356.318 1075.38 359.5L1079.86 359.864C1080.19 358.705 1081.22 357.852 1082.96 357.852C1084.61 357.852 1085.55 358.682 1085.55 360.114V360.182C1085.55 361.307 1084.36 361.455 1081.33 361.75C1077.87 362.068 1074.77 363.227 1074.77 367.125C1074.77 370.58 1077.24 372.33 1080.57 372.33ZM1081.95 368.989C1080.46 368.989 1079.39 368.295 1079.39 366.966C1079.39 365.602 1080.52 364.932 1082.22 364.693C1083.28 364.545 1085.01 364.295 1085.59 363.909V365.761C1085.59 367.591 1084.08 368.989 1081.95 368.989ZM1094.15 378.545H1098.99V369.205H1099.14C1099.81 370.659 1101.28 372.284 1104.09 372.284C1108.07 372.284 1111.17 369.136 1111.17 363.295C1111.17 357.295 1107.93 354.318 1104.11 354.318C1101.18 354.318 1099.79 356.057 1099.14 357.477H1098.92V354.545H1094.15V378.545ZM1098.89 363.273C1098.89 360.159 1100.21 358.17 1102.56 358.17C1104.96 358.17 1106.23 360.25 1106.23 363.273C1106.23 366.318 1104.93 368.432 1102.56 368.432C1100.23 368.432 1098.89 366.386 1098.89 363.273ZM1114.4 378.545H1119.24V369.205H1119.39C1120.06 370.659 1121.53 372.284 1124.34 372.284C1128.32 372.284 1131.42 369.136 1131.42 363.295C1131.42 357.295 1128.18 354.318 1124.36 354.318C1121.43 354.318 1120.04 356.057 1119.39 357.477H1119.17V354.545H1114.4V378.545ZM1119.14 363.273C1119.14 360.159 1120.46 358.17 1122.81 358.17C1125.21 358.17 1126.48 360.25 1126.48 363.273C1126.48 366.318 1125.18 368.432 1122.81 368.432C1120.48 368.432 1119.14 366.386 1119.14 363.273Z" fill="black" fill-opacity="0.6"/>
<path d="M751.557 369H754.875V366.284H755.159C755.773 367.398 757.023 369.341 760.205 369.341C764.432 369.341 767.5 365.955 767.5 360.307C767.5 354.648 764.386 351.318 760.17 351.318C756.932 351.318 755.761 353.295 755.159 354.375H754.955V345.727H751.557V369ZM754.886 360.273C754.886 356.625 756.477 354.205 759.443 354.205C762.523 354.205 764.068 356.807 764.068 360.273C764.068 363.773 762.477 366.443 759.443 366.443C756.523 366.443 754.886 363.943 754.886 360.273ZM772.838 375.545C775.645 375.545 777.418 374.08 778.429 371.33L785.645 351.58L781.974 351.545L777.554 365.091H777.372L772.952 351.545H769.315L775.702 369.227L775.281 370.386C774.418 372.705 773.202 372.898 771.338 372.386L770.52 375.17C770.929 375.352 771.815 375.545 772.838 375.545Z" fill="black" fill-opacity="0.6"/>
<g clip-path="url(#clip0)">
<path d="M813.404 342.819C815.145 344.233 815.798 344.125 819.07 343.906L849.905 342.056C850.558 342.056 850.014 341.402 849.797 341.295L844.673 337.592C843.693 336.831 842.384 335.959 839.878 336.176L810.023 338.355C808.936 338.462 808.717 339.008 809.151 339.442L813.404 342.819ZM815.255 350.005V382.448C815.255 384.191 816.125 384.844 818.087 384.735L851.974 382.775C853.937 382.667 854.156 381.468 854.156 380.052V347.826C854.156 346.412 853.612 345.649 852.411 345.756L816.998 347.826C815.691 347.936 815.255 348.589 815.255 350.003V350.005ZM807.517 335.415L838.574 333.128C842.387 332.802 843.369 333.019 845.765 334.762L855.68 341.729C857.313 342.926 857.859 343.253 857.859 344.559V382.775C857.859 385.169 856.989 386.587 853.939 386.802L817.87 388.981C815.584 389.091 814.492 388.764 813.292 387.238L805.991 377.765C804.685 376.022 804.141 374.718 804.141 373.192V339.223C804.141 337.265 805.014 335.63 807.517 335.415Z" fill="black"/>
<path d="M850.25 348.312C850.095 348.312 832.735 350.145 824.653 366.463C818.748 378.274 819.059 381.848 819.525 381.848C819.991 382.003 824.506 370.22 831.438 369.313C839.201 369.345 846.313 361.8 846.313 361.8C846.313 361.8 837.863 362.267 836.931 362.267C835.687 362.267 834.755 361.956 834.289 361.8C836.309 359.936 839.353 359.998 841.063 359.688C842.461 359.377 844.448 358.743 846.313 357.5C849.732 355.013 850.405 348.623 850.25 348.312Z" fill="black"/>
<path d="M834.5 377.625C834.5 379.075 832.887 380.25 831.438 380.25C829.988 380.25 829.25 379.075 829.25 377.625C829.25 376.175 830.863 375 832.312 375C833.762 375 834.5 376.175 834.5 377.625Z" fill="black"/>
</g>
<defs>
<clipPath id="clip0">
<rect width="56" height="56" fill="white" transform="translate(803 333)"/>
</clipPath>
</defs>
</svg>
